#N canvas 858 124 340 350 10;
#X obj 56 153 r~;
#X obj 56 69 f \$1;
#X obj 56 90 - 1;
#X obj 56 111 pack f \$2;
#X msg 56 132 set \$2-\$1-instance;
#X obj 74 226 s~ \$2-\$1-instance;
#X obj 56 272 outlet~;
#X obj 56 48 inlet;
#X obj 56 174 rzero_rev~ 0;
#X connect 0 0 8 0;
#X connect 1 0 2 0;
#X connect 2 0 3 0;
#X connect 3 0 4 0;
#X connect 4 0 0 0;
#X connect 7 0 1 0;
#X connect 8 0 5 0;
#X connect 8 0 6 0;
