#N canvas 333 117 317 200 10;
#X obj 58 54 inlet~;
#X obj 58 117 outlet~;
#N canvas 350 525 332 202 send-to-first-instance 0;
#X obj 62 51 inlet~;
#X obj 62 72 s~ \$0-0-instance;
#X obj 63 131 outlet~;
#X connect 0 0 1 0;
#X restore 58 75 pd send-to-first-instance;
#N canvas 237 262 507 285 clone 0;
#X obj 82 75 loadbang;
#X obj 82 96 f \$1;
#X msg 82 117 resize \$1;
#X obj 83 189 clone -d -s 1 history~.cl 1 \$0;
#X obj 83 138 t b a;
#X msg 83 159 all bang;
#X obj 82 37 inlet~;
#X obj 83 210 outlet~;
#X connect 0 0 1 0;
#X connect 1 0 2 0;
#X connect 2 0 4 0;
#X connect 3 0 7 0;
#X connect 4 0 5 0;
#X connect 4 1 3 0;
#X connect 5 0 3 0;
#X restore 58 96 pd clone;
#X connect 0 0 2 0;
#X connect 2 0 3 0;
#X connect 3 0 1 0;
