#N canvas 749 271 688 505 10;
#N canvas 179 204 450 278 (subpatch) 0;
#X array sig1 200 float 0;
#A color 900;
#A width 1;
#X array sig2 200 float 0;
#A color 950;
#A width 1;
#X array sig3 200 float 0;
#A color 990;
#A width 1;
#X array sig4 200 float 0;
#A color 590;
#A width 1;
#X array sig5 200 float 0;
#A color 90;
#A width 1;
#X array sig6 200 float 0;
#A color 95;
#A width 1;
#X array sig7 200 float 0;
#A color 99;
#A width 1;
#X array sig8 200 float 0;
#A color 59;
#A width 1;
#X coords 0 1 199 -1 600 240 1 0 0;
#X restore 37 225 graph;
#N canvas 788 813 922 300 init_colors 1;
#X obj 62 37 loadbang;
#X msg 60 60 color 900;
#X obj 60 81 s sig1;
#X obj 130 81 s sig2;
#X obj 200 81 s sig3;
#X obj 270 81 s sig4;
#X obj 340 81 s sig5;
#X obj 410 81 s sig6;
#X obj 480 81 s sig7;
#X obj 550 81 s sig8;
#X msg 130 60 color 950;
#X msg 200 60 color 990;
#X msg 270 60 color 590;
#X msg 340 60 color 90;
#X msg 410 60 color 95;
#X msg 480 60 color 99;
#X msg 550 60 color 59;
#X connect 0 0 1 0;
#X connect 0 0 16 0;
#X connect 0 0 15 0;
#X connect 0 0 14 0;
#X connect 0 0 13 0;
#X connect 0 0 12 0;
#X connect 0 0 11 0;
#X connect 0 0 10 0;
#X connect 1 0 2 0;
#X connect 10 0 3 0;
#X connect 11 0 4 0;
#X connect 12 0 5 0;
#X connect 13 0 6 0;
#X connect 14 0 7 0;
#X connect 15 0 8 0;
#X connect 16 0 9 0;
#X restore 450 186 pd init_colors;
#X obj 94 128 history~ 8;
#X obj 94 186 tabwrite~ sig1 sig2 sig3 sig4 sig5 sig6 sig7 sig8;
#X obj 101 166 bang~;
#X obj 543 186 block~ 1024 1 1;
#X obj 94 64 samplerate~;
#X obj 94 85 / 64;
#X obj 94 107 osc~;
#X obj 94 23 loadbang;
#X obj 151 23 r pd-dsp-started;
#X connect 2 0 3 0;
#X connect 4 0 3 0;
#X connect 6 0 7 0;
#X connect 7 0 8 0;
#X connect 8 0 2 0;
#X connect 9 0 6 0;
#X connect 10 0 6 0;
